<?xml version="1.0" encoding="utf-8"?>
<!-- Generator: Adobe Illustrator 18.0.0, SVG Export Plug-In . SVG Version: 6.00 Build 0)  -->
<!DOCTYPE svg PUBLIC "-//W3C//DTD SVG 1.1//EN" "http://www.w3.org/Graphics/SVG/1.1/DTD/svg11.dtd">
<svg version="1.1" id="Layer_1" xmlns="http://www.w3.org/2000/svg" xmlns:xlink="http://www.w3.org/1999/xlink" x="0px" y="0px"
	 viewBox="0 0 800 600" enable-background="new 0 0 800 600" xml:space="preserve">
<g>
<polygon points="333.2,304.1 371,277.8 333.2,238.7"/>
<polygon points="371,313.1 371,277.8 333.2,304.1"/>
<polygon points="330.5,321.3 371,313.1 333.2,304.1"/>
<polygon points="350.4,359 365.4,340 330.5,321.3"/>
<polygon points="365.4,340 371,313.1 330.5,321.3"/>
<polygon points="371,277.8 371,234.5 333.2,238.7"/>
<polygon points="333.2,238.7 371,208.7 333.2,182.4"/>
<polygon points="371,208.7 371,182.4 333.2,182.4"/>
<polygon points="371,234.5 371,208.7 333.2,238.7"/>
<polygon points="323.4,332.5 350.4,359 330.5,321.3"/>
<polygon points="303.6,374.4 328.9,370.5 298.6,340.4"/>
<polygon points="271.7,370.1 303.6,374.4 281.2,337.8"/>
<polygon points="281.2,337.8 303.6,374.4 298.6,340.4"/>
<polygon points="245.1,357.1 271.7,370.1 262.7,328"/>
<polygon points="262.7,328 271.7,370.1 281.2,337.8"/>
<polygon points="328.9,370.5 350.4,359 323.4,332.5"/>
<polygon points="312.4,338.6 328.9,370.5 323.4,332.5"/>
<polygon points="298.6,340.4 328.9,370.5 312.4,338.6"/>
<polygon points="488.9,338.3 503,370.5 499.2,333.4"/>
<polygon points="526.1,359.9 541.4,342.2 504.8,326.2"/>
<polygon points="474.3,374.1 503,370.5 488.9,338.3"/>
<polygon points="503,370.5 526.1,359.9 499.2,333.4"/>
<polygon points="499.2,333.4 526.1,359.9 504.8,326.2"/>
<polygon points="446.8,335 435.4,368.3 473.5,340.1"/>
<polygon points="435.4,368.3 474.3,374.1 473.5,340.1"/>
<polygon points="421,320.2 399.7,347.9 446.8,335"/>
<polygon points="504.8,326.2 541.4,342.2 506.6,318"/>
<polygon points="399.7,347.9 435.4,368.3 446.8,335"/>
<polygon points="473.5,340.1 474.3,374.1 488.9,338.3"/>
<polygon points="462.1,290.1 480.2,295.2 486.8,261.7"/>
<polygon points="486.8,261.7 480.2,295.2 509.1,268.3"/>
<polygon points="469,257.3 462.1,290.1 486.8,261.7"/>
<polygon points="423.2,273.1 441,283.4 455.5,252.1"/>
<polygon points="441,283.4 462.1,290.1 469,257.3"/>
<polygon points="447.1,245.2 423.2,273.1 455.5,252.1"/>
<polygon points="455.5,252.1 441,283.4 469,257.3"/>
<polygon points="480.2,295.2 494.3,300.5 509.1,268.3"/>
<polygon points="503.4,307.5 506.6,318 546.9,317.7"/>
<polygon points="506.6,318 541.4,342.2 546.9,317.7"/>
<polygon points="542.5,296 503.4,307.5 546.9,317.7"/>
<polygon points="532,281.8 503.4,307.5 542.5,296"/>
<polygon points="494.3,300.5 503.4,307.5 532,281.8"/>
<polygon points="509.1,268.3 494.3,300.5 532,281.8"/>
<polygon points="411,213.3 406.4,236.3 444.2,235.4"/>
<polygon points="474.3,213.1 444.4,183.4 463.4,214.4"/>
<polygon points="463.4,214.4 444.4,183.4 453.7,218.5"/>
<polygon points="444.4,183.4 424,195.3 453.7,218.5"/>
<polygon points="471,179.1 444.4,183.4 474.3,213.1"/>
<polygon points="522.9,227.2 505.8,182.4 497.8,216.1"/>
<polygon points="410.9,257.9 423.2,273.1 447.1,245.2"/>
<polygon points="505.8,182.4 471,179.1 497.8,216.1"/>
<polygon points="497.8,216.1 471,179.1 474.3,213.1"/>
<polygon points="453.7,218.5 424,195.3 446.8,225.4"/>
<polygon points="444.2,235.4 410.9,257.9 447.1,245.2"/>
<polygon points="539.5,196.8 505.8,182.4 522.9,227.2"/>
<polygon points="406.4,236.3 410.9,257.9 444.2,235.4"/>
<polygon points="424,195.3 411,213.3 446.8,225.4"/>
<polygon points="446.8,225.4 411,213.3 444.2,235.4"/>
</g>
<line fill="none" x1="371" y1="208.7" x2="333.2" y2="182.4"/>
<line fill="none" x1="371" y1="208.7" x2="333.2" y2="238.7"/>
<line fill="none" x1="371" y1="234.5" x2="333.2" y2="238.7"/>
<line fill="none" x1="371" y1="277.8" x2="333.2" y2="238.7"/>
<line fill="none" x1="371" y1="277.8" x2="333.2" y2="304.1"/>
<line fill="none" x1="333.2" y1="304.1" x2="371" y2="313.1"/>
<line fill="none" x1="371" y1="313.1" x2="330.5" y2="321.3"/>
<line fill="none" x1="330.5" y1="321.3" x2="365.4" y2="340"/>
<line fill="none" x1="365.4" y1="340" x2="323.4" y2="332.5"/>
<line fill="none" x1="323.4" y1="332.5" x2="350.4" y2="359"/>
<line fill="none" x1="323.4" y1="332.5" x2="328.9" y2="370.5"/>
<line fill="none" x1="328.9" y1="370.5" x2="312.4" y2="338.6"/>
<line fill="none" x1="312.4" y1="338.6" x2="303.6" y2="374.4"/>
<line fill="none" x1="298.6" y1="340.4" x2="303.6" y2="374.4"/>
<line fill="none" x1="298.6" y1="340.4" x2="271.7" y2="370.1"/>
<line fill="none" x1="271.7" y1="370.1" x2="281.2" y2="337.8"/>
<line fill="none" x1="281.2" y1="337.8" x2="245.1" y2="357.1"/>
<line fill="none" x1="421" y1="320.2" x2="435.4" y2="368.3"/>
<line fill="none" x1="435.4" y1="368.3" x2="446.8" y2="335"/>
<line fill="none" x1="446.8" y1="335" x2="474.3" y2="374.1"/>
<line fill="none" x1="473.5" y1="340.1" x2="474.3" y2="374.1"/>
<line fill="none" x1="503" y1="370.5" x2="473.5" y2="340.1"/>
<line fill="none" x1="488.9" y1="338.3" x2="503" y2="370.5"/>
<line fill="none" x1="499.2" y1="333.4" x2="526.1" y2="359.9"/>
</svg>
